<svg width="26" height="26" viewBox="0 0 26 26" fill="none" xmlns="http://www.w3.org/2000/svg">
<g clip-path="url(#clip0_3_32)">
<path d="M23.3791 14.5827L25.4309 5.55488C25.579 4.90306 25.0836 4.28236 24.4151 4.28236H7.36728L6.96945 2.33748C6.87032 1.85271 6.44376 1.50458 5.94892 1.50458H1.49888C0.923577 1.50458 0.457214 1.97094 0.457214 2.54624V3.24069C0.457214 3.81599 0.923577 4.28236 1.49888 4.28236H4.532L7.58096 19.1884C6.85153 19.6079 6.35999 20.3944 6.35999 21.2962C6.35999 22.6386 7.44819 23.7268 8.79055 23.7268C10.1329 23.7268 11.2211 22.6386 11.2211 21.2962C11.2211 20.6159 10.9413 20.0013 10.4909 19.5601H19.5902C19.1398 20.0013 18.86 20.6159 18.86 21.2962C18.86 22.6386 19.9482 23.7268 21.2905 23.7268C22.6329 23.7268 23.7211 22.6386 23.7211 21.2962C23.7211 20.3339 23.1617 19.5023 22.3505 19.1085L22.5899 18.0549C22.7381 17.4031 22.2426 16.7824 21.5742 16.7824H9.9241L9.64003 15.3935H22.3633C22.8497 15.3935 23.2713 15.0569 23.3791 14.5827Z" fill="#60A22D"/>
</g>
<defs>
<clipPath id="clip0_3_32">
<rect width="25" height="25" fill="white" transform="translate(0.457214 0.115692)"/>
</clipPath>
</defs>
</svg>
