<svg width="15" height="16" viewBox="0 0 15 16" fill="none" xmlns="http://www.w3.org/2000/svg">
<path d="M3.38083 13.6643L4.03181 9.87555L4.07635 9.61634L3.88798 9.43279L1.13538 6.75049L1.13524 6.75036C0.937255 6.55758 1.04749 6.22094 1.31914 6.18154L1.3195 6.18149L5.12419 5.6268L5.38424 5.58889L5.50048 5.35319L7.20091 1.90547C7.32215 1.6599 7.67552 1.65697 7.79923 1.90586C7.79929 1.90597 7.79934 1.90609 7.7994 1.9062L9.49946 5.35319L9.61571 5.58889L9.87576 5.6268L13.6804 6.18149L13.6808 6.18154C13.9524 6.22094 14.0627 6.55758 13.8647 6.75036L13.8646 6.75049L11.112 9.43279L10.9236 9.61634L10.9681 9.87555L11.6191 13.6643C11.6191 13.6643 11.6191 13.6643 11.6191 13.6643C11.6653 13.9341 11.3798 14.143 11.1363 14.015L11.1363 14.015L7.73261 12.2259L7.49997 12.1036L7.26734 12.2259L3.86369 14.015L3.86212 14.0158C3.62214 14.143 3.33415 13.9371 3.38083 13.6643Z" fill="white" stroke="#6B5995"/>
</svg>
