<svg width="10" height="10" viewBox="0 0 10 10" fill="none" xmlns="http://www.w3.org/2000/svg">
<g clip-path="url(#clip0_57_123)">
<path d="M9.0625 0.625H6.71875L6.53516 0.259765C6.49627 0.181682 6.43636 0.116 6.36217 0.0701087C6.28799 0.0242172 6.20247 -6.29546e-05 6.11523 -3.90338e-07H3.88281C3.79578 -0.000334971 3.71041 0.0238547 3.63649 0.0697972C3.56256 0.11574 3.50308 0.181577 3.46484 0.259765L3.28125 0.625H0.9375C0.85462 0.625 0.775134 0.657924 0.716529 0.716529C0.657924 0.775134 0.625 0.85462 0.625 0.9375L0.625 1.5625C0.625 1.64538 0.657924 1.72487 0.716529 1.78347C0.775134 1.84208 0.85462 1.875 0.9375 1.875H9.0625C9.14538 1.875 9.22487 1.84208 9.28347 1.78347C9.34208 1.72487 9.375 1.64538 9.375 1.5625V0.9375C9.375 0.85462 9.34208 0.775134 9.28347 0.716529C9.22487 0.657924 9.14538 0.625 9.0625 0.625ZM1.66406 9.12109C1.67897 9.35911 1.78402 9.58249 1.95782 9.74577C2.13163 9.90906 2.36113 9.99997 2.59961 10H7.40039C7.63887 9.99997 7.86837 9.90906 8.04218 9.74577C8.21598 9.58249 8.32103 9.35911 8.33594 9.12109L8.75 2.5H1.25L1.66406 9.12109Z" fill="black"/>
</g>
<defs>
<clipPath id="clip0_57_123">
<rect width="10" height="10" fill="white"/>
</clipPath>
</defs>
</svg>
